<svg id="Layer_1" data-name="Layer 1" xmlns="http://www.w3.org/2000/svg" viewBox="0 0 1700.16 251.68"><defs><style>.cls-1{fill:#e73843;}.cls-2{fill:#2f2f2f;}.cls-3{fill:#3c3c3b;}</style></defs><title>KAVVV_reddark_180</title><path class="cls-1" d="M.1,304.83v-1.2c.4.2.9.3,1.3.5C1,304.33.5,304.63.1,304.83Z" transform="translate(-0.1 -143.3)"/><path class="cls-1" d="M1617.6,317.83c27.7-6.7,55-14.4,82-23.7v29.6a1.7,1.7,0,0,1-.7-.1C1671.8,321.33,1644.7,319.33,1617.6,317.83Z" transform="translate(-0.1 -143.3)"/><path class="cls-1" d="M85.46,332.17a1616.61,1616.61,0,0,1,172-27.24c33.7-3.6,67.5-6,101.3-8,15.4-.9,30.8-1.5,46.2-2,4,.1,8.07.1,12.07.19-3.94-.1-8-.19-12.07-.19,13.9-.4,27.8-.7,41.7-.8,20-.2,39.9-.1,59.9.2h.1c11.6.2,23.2.4,34.8.8,25.1.7,50.3,2.6,75.4,4.2,16.1,1,32.2,2.2,48.2,3.9,19.9,2,39.7,4.2,59.5,6.9,22.8,3.1,45.7,6.3,68.4,10.1,33.8,5.7,67.3,12.9,101.2,18,40.2,6.1,80.6,11.9,121.1,15.5,1.54.17,3,.27,4.54.43-7.14,1.16-14.19,2.41-21.34,3.57-27.3,4.6-54.5,10.1-82,13.7-46.1,6-92.2,12.1-138.5,15.8-49.1,3.9-98.4,5.8-147.6,7.2-54.2,1.5-108.4-.2-162.5-3.1q-83.1-4.5-165.4-15.3c-52.8-7-105.1-16.2-157-28.3Q115.27,340.69,85.46,332.17Z" transform="translate(-0.1 -143.3)"/><path class="cls-2" d="M.76,305.6a8.26,8.26,0,0,0,1.3-.7c-.4-.2-.9-.3-1.3-.5V143.3h1699.5V294.9c-27,9.3-54.3,17-82,23.7q-28.8,6.9-57.9,12.7c-42.7,8.6-85.8,14.1-129,19.2-92,10.9-184.3,14.1-276.8,11.9-44.6-1.1-89.1-3.8-133.5-7.6-1.8-.2-3.5-.3-5.3-.5-40.5-3.6-80.8-9.4-121.1-15.5-33.9-5.1-67.4-12.3-101.2-18-22.7-3.9-45.6-7.1-68.4-10.1q-29.7-3.9-59.5-6.9c-16-1.6-32.1-2.8-48.2-3.9-25.1-1.6-50.2-3.5-75.4-4.2-11.6-.3-23.2-.6-34.8-.8-20-.3-39.9-.4-59.9-.2-13.9.1-27.8.4-41.7.8-15.4.4-30.8,1.1-46.2,2-33.8,2-67.6,4.4-101.3,8a1616.47,1616.47,0,0,0-172.3,27.3q-16.5,3.6-33,7.5-26.4,6.3-52.2,14.1V305.6Z" transform="translate(-0.1 -143.3)"/><path class="cls-3" d="M1699.6,232.48v1.2c-.4-.2-.9-.3-1.3-.5A8.26,8.26,0,0,1,1699.6,232.48Z" transform="translate(-0.1 -143.3)"/></svg>