<?xml version="1.0" encoding="utf-8"?>
<!-- Generator: Adobe Illustrator 21.0.2, SVG Export Plug-In . SVG Version: 6.00 Build 0)  -->
<svg version="1.1" id="Layer_1" xmlns="http://www.w3.org/2000/svg" xmlns:xlink="http://www.w3.org/1999/xlink" x="0px" y="0px"
	 viewBox="0 0 1700.8 510.3" style="enable-background:new 0 0 1700.8 510.3;" xml:space="preserve">
<style type="text/css">
	.st0{fill:#95D4D1;}
	.st1{fill:#18433D;}
	.st2{fill:#3C3C3B;}
</style>
<g>
	<path class="st0" d="M1700.3,233.5v1.2c-0.4-0.2-0.9-0.3-1.3-0.5C1699.4,234,1699.9,233.7,1700.3,233.5z"/>
	<g>
		<path class="st0" d="M82.8,220.5c-27.7,6.7-55,14.4-82,23.7v-29.6c0.2,0,0.5,0,0.7,0.1C28.6,217,55.7,219,82.8,220.5z"/>
		<path class="st0" d="M1614.9,206.1c-56.8,12.3-114.2,21.2-172,27.2c-33.7,3.6-67.5,6-101.3,8c-15.4,0.9-30.8,1.5-46.2,2
			c-4-0.1-8.1-0.1-12.1-0.2c3.9,0.1,8,0.2,12.1,0.2c-13.9,0.4-27.8,0.7-41.7,0.8c-20,0.2-39.9,0.1-59.9-0.2h-0.1
			c-11.6-0.2-23.2-0.4-34.8-0.8c-25.1-0.7-50.3-2.6-75.4-4.2c-16.1-1-32.2-2.2-48.2-3.9c-19.9-2-39.7-4.2-59.5-6.9
			c-22.8-3.1-45.7-6.3-68.4-10.1c-33.8-5.7-67.3-12.9-101.2-18c-40.2-6.1-80.6-11.9-121.1-15.5c-1.5-0.2-3-0.3-4.5-0.4
			c7.1-1.2,14.2-2.4,21.3-3.6c27.3-4.6,54.5-10.1,82-13.7c46.1-6,92.2-12.1,138.5-15.8c49.1-3.9,98.4-5.8,147.6-7.2
			c54.2-1.5,108.4,0.2,162.5,3.1c55.4,3,110.5,8.1,165.4,15.3c52.8,7,105.1,16.2,157,28.3C1575,195.3,1595.1,200.4,1614.9,206.1z"/>
	</g>
</g>
<path class="st1" d="M1699.6,232.7c-0.4,0.2-0.9,0.4-1.3,0.7c0.4,0.2,0.9,0.3,1.3,0.5V395H0.1V243.4c27-9.3,54.3-17,82-23.7
	c19.2-4.6,38.5-8.8,57.9-12.7c42.7-8.6,85.8-14.1,129-19.2c92-10.9,184.3-14.1,276.8-11.9c44.6,1.1,89.1,3.8,133.5,7.6
	c1.8,0.2,3.5,0.3,5.3,0.5c40.5,3.6,80.8,9.4,121.1,15.5c33.9,5.1,67.4,12.3,101.2,18c22.7,3.9,45.6,7.1,68.4,10.1
	c19.8,2.6,39.6,4.9,59.5,6.9c16,1.6,32.1,2.8,48.2,3.9c25.1,1.6,50.2,3.5,75.4,4.2c11.6,0.3,23.2,0.6,34.8,0.8
	c20,0.3,39.9,0.4,59.9,0.2c13.9-0.1,27.8-0.4,41.7-0.8c15.4-0.4,30.8-1.1,46.2-2c33.8-2,67.6-4.4,101.3-8
	c57.9-6.1,115.4-15,172.3-27.3c11-2.4,22-4.9,33-7.5c17.6-4.2,35-8.9,52.2-14.1v48.8H1699.6z"/>
<path class="st2" d="M1699.6,232.5v1.2c-0.4-0.2-0.9-0.3-1.3-0.5C1698.7,232.9,1699.2,232.7,1699.6,232.5z"/>
</svg>
