<svg id="Layer_1" data-name="Layer 1" xmlns="http://www.w3.org/2000/svg" viewBox="0 0 1699.48 454.26"><defs><style>.cls-1{fill:none;}.cls-2{fill:#96c13d;}.cls-3{fill:#3c3c3b;}</style></defs><title>dubbelecurve_</title><path class="cls-1" d="M1699.62,73.66V226.28q-25.82,7.75-52.16,14.06-16.44,3.95-33,7.51-29.86-8.56-60.19-15.6c-51.85-12.09-104.21-21.34-157-28.29q-82.37-10.87-165.38-15.27c-54.14-2.89-108.31-4.64-162.48-3.14-49.22,1.36-98.5,3.31-147.57,7.22-46.29,3.69-92.4,9.77-138.47,15.78-27.45,3.58-54.66,9.12-82,13.69L679.33,226c-44.41-3.86-89-6.56-133.54-7.62-92.49-2.21-184.84,1-276.8,11.93-43.18,5.15-86.29,10.65-129,19.23-19.39,3.89-38.71,8.06-57.88,12.71C55,260.68,27.9,258.69.82,256.43l-.68-.06V73.66Z" transform="translate(-0.14 -73.66)"/><path class="cls-1" d="M1699.62,275.23v1.16l-1.31-.5C1698.75,275.67,1699.18,275.44,1699.62,275.23Z" transform="translate(-0.14 -73.66)"/><path class="cls-1" d="M1294.69,285.13q-20.86.62-41.73.79-29.95.27-59.9-.19,44.47-1.13,89-.75Q1288.36,285,1294.69,285.13Z" transform="translate(-0.14 -73.66)"/><rect class="cls-1" y="363.79" width="1699.48" height="90.48"/><path class="cls-2" d="M82.14,262.21c-27.66,6.7-55,14.41-82,23.73V256.37l.68.06C27.9,258.69,55,260.68,82.14,262.21Z" transform="translate(-0.14 -73.66)"/><path class="cls-2" d="M1614.49,247.85a1626.85,1626.85,0,0,1-172.3,27.3c-33.67,3.56-67.49,6-101.3,8q-23.08,1.34-46.2,2-6.34-.09-12.68-.15-44.47-.41-89,.75-17.38-.27-34.75-.76c-25.14-.73-50.25-2.58-75.36-4.18-16.09-1-32.18-2.23-48.22-3.85-19.85-2-39.69-4.24-59.47-6.88-22.84-3.05-45.67-6.26-68.4-10.12-33.78-5.75-67.33-12.92-101.2-18-40.23-6.08-80.58-11.89-121.07-15.5l-5.26-.45,22.12-3.72c27.33-4.57,54.54-10.1,82-13.69,46.07-6,92.18-12.08,138.47-15.78,49.07-3.9,98.35-5.86,147.57-7.22,54.17-1.49,108.34.25,162.48,3.14q83,4.45,165.38,15.27c52.75,7,105.12,16.2,157,28.29Q1584.62,239.32,1614.49,247.85Z" transform="translate(-0.14 -73.66)"/><path class="cls-3" d="M1699.62,275.23c-.44.21-.87.44-1.31.66l1.31.5V437.45H.14V285.93c27-9.32,54.34-17,82-23.73,19.17-4.65,38.49-8.81,57.88-12.71,42.67-8.58,85.78-14.09,129-19.23,92-10.94,184.31-14.15,276.8-11.93,44.55,1.06,89.13,3.75,133.54,7.62l5.26.45c40.5,3.6,80.85,9.42,121.07,15.5,33.87,5.12,67.42,12.28,101.2,18,22.73,3.86,45.56,7.07,68.4,10.12,19.78,2.64,39.62,4.88,59.47,6.88,16,1.62,32.13,2.82,48.22,3.85,25.11,1.6,50.22,3.45,75.36,4.18q17.38.5,34.75.76,29.95.45,59.9.19,20.86-.2,41.73-.79,23.11-.66,46.2-2c33.81-2,67.63-4.45,101.3-8a1626.85,1626.85,0,0,0,172.3-27.3q16.5-3.57,33-7.51,26.33-6.35,52.16-14.06Z" transform="translate(-0.14 -73.66)"/><path class="cls-3" d="M1699.62,275v1.16l-1.31-.5C1698.75,275.43,1699.18,275.2,1699.62,275Z" transform="translate(-0.14 -73.66)"/></svg>